<svg xmlns="http://www.w3.org/2000/svg" version="1.1" xmlns:xlink="http://www.w3.org/1999/xlink" xmlns:svgjs="http://svgjs.com/svgjs" width="15" height="20"><svg width="15" height="20" viewBox="0 0 15 20" fill="none" xmlns="http://www.w3.org/2000/svg">
<g clip-path="url(#clip0_3_14)">
<path d="M9.75701 2.99778C8.36091 2.99778 7.21862 3.50533 6.33017 4.52046C5.44172 5.53558 4.99749 6.77274 4.99749 8.23199V13.2283C4.99749 13.7041 4.75952 13.9421 4.28357 13.9421C3.80762 13.9421 3.56964 13.7041 3.56964 13.2283V8.23199C3.56964 6.82034 3.92661 5.55142 4.64053 4.42528C5.35446 3.29913 6.26672 2.50607 7.37726 2.04611C4.99749 1.6337 2.77639 1.42751 0.713929 1.42751C0.237975 1.42751 0 1.18959 0 0.713757C0 0.23792 0.237975 0 0.713929 0C3.17303 0 6.18737 0.364797 9.75701 1.09443C9.9474 1.12614 10.114 1.23718 10.2568 1.42751C10.3996 1.60197 10.471 1.80818 10.471 2.04611C10.471 2.28403 10.3916 2.50607 10.233 2.71227C10.0743 2.90261 9.91566 2.99778 9.75701 2.99778Z" fill="#D7827E"></path>
<path d="M6.81114 19.4149C6.38599 19.3628 6.17878 19.0975 6.18954 18.6194C6.21135 17.7912 6.1461 15.8495 5.99381 12.7946C5.85534 9.75726 5.82576 7.9159 5.90503 7.27045C6.05196 6.07398 6.7299 5.17441 7.93879 4.57172C9.14768 3.96903 10.445 3.75275 11.8307 3.92284C12.87 4.05045 13.6836 4.45394 14.2715 5.13333C14.8594 5.81276 15.0914 6.65626 14.9678 7.66381C14.8943 8.26205 14.6534 8.79178 14.2451 9.25303C13.8524 9.71623 13.4027 10.0605 12.8954 10.2859C11.8103 10.7919 10.9292 11.0034 10.2521 10.9202C9.77963 10.8622 9.57244 10.5971 9.63045 10.1248C9.68263 9.69975 9.94688 9.50047 10.4231 9.52698C10.9171 9.53967 11.5385 9.36027 12.2875 8.98876C13.0522 8.61921 13.4722 8.12744 13.5475 7.51345C13.6249 6.88373 13.494 6.38825 13.1547 6.02701C12.8174 5.65 12.2393 5.41124 11.4205 5.31072C10.6174 5.21216 9.75383 5.34585 8.82975 5.71182C7.92141 6.07972 7.42277 6.62578 7.33384 7.34995C7.24491 8.07413 7.29523 10.3975 7.48483 14.3199L7.93605 12.7933C8.07279 12.3307 8.33801 12.1235 8.73169 12.1718C9.20408 12.2298 9.41128 12.495 9.35329 12.9672C9.34361 13.046 9.32509 13.1316 9.29775 13.2241L7.67762 18.8021C7.64447 18.9419 7.55524 19.0827 7.40993 19.2248C7.2627 19.3825 7.06309 19.4458 6.81114 19.4149Z" fill="#D7827E"></path>
</g>
<defs>
<clipPath id="SvgjsClipPath1000">
<rect width="15" height="19.4953" fill="white"></rect>
</clipPath>
</defs>
</svg><style>@media (prefers-color-scheme: light) { :root { filter: none; } }
</style></svg>